<?xml version="1.0" encoding="UTF-8" standalone="no"?>
<!-- Created with Inkscape (http://www.inkscape.org/) -->

<svg
   width="250"
   height="250"
   viewBox="0 0 66.145832 66.145835"
   version="1.1"
   id="svg5"
   xmlns="http://www.w3.org/2000/svg"
   xmlns:svg="http://www.w3.org/2000/svg">
	<defs
	   id="defs2">
		<rect
		   x="1.8184222"
		   y="2.7276333"
		   width="245.03239"
		   height="95.467164"
		   id="rect9061" />
		<rect
		   x="2.7276333"
		   y="5.000661"
		   width="245.48699"
		   height="90.466503"
		   id="rect4583" />
	</defs>
	<g
	   id="layer1">
		<g
		   style="fill:none;fill-opacity:1;stroke:#f9f9f9;stroke-opacity:1"
		   id="g861"
		   transform="matrix(1.9754526,0,0,1.9754526,9.3724151,22.156709)">
			<path
			   opacity="0.1"
			   d="m 5.60464,11.4417 c 0.18805,1.6926 0.28208,2.5388 0.8516,3.0486 C 7.02576,15 7.87723,15 9.58017,15 h 0.12571 3.76472 1.3564 c 1.1732,0 1.7597,0 2.2357,-0.2866 0.476,-0.2866 0.7505,-0.805 1.2994,-1.8418 L 20.8303,8.20947 C 21.361,7.207 20.6343,6 19.5,6 H 9.70588 9.46906 C 7.38336,6 6.34051,6 5.74427,6.66616 5.14803,7.33231 5.2632,8.36878 5.49353,10.4417 Z"
			   fill="#323232"
			   id="path840"
			   style="fill:none;fill-opacity:1;stroke:#f9f9f9;stroke-opacity:1" />
			<path
			   d="m 5.60464,11.4417 c 0.18805,1.6926 0.28208,2.5388 0.8516,3.0486 C 7.02576,15 7.87723,15 9.58017,15 h 0.12571 3.76472 1.3564 c 1.1732,0 1.7597,0 2.2357,-0.2866 0.476,-0.2866 0.7505,-0.805 1.2994,-1.8418 L 20.8303,8.20947 C 21.361,7.207 20.6343,6 19.5,6 V 6 H 9.70588 9.46906 C 7.38336,6 6.34051,6 5.74427,6.66616 5.14803,7.33231 5.2632,8.36878 5.49353,10.4417 Z"
			   stroke="#323232"
			   stroke-width="2"
			   stroke-linejoin="round"
			   id="path842"
			   style="fill:none;fill-opacity:1;stroke:#f9f9f9;stroke-opacity:1" />
			<path
			   d="M 3,3 H 3.5 V 3 C 4.1642,3 4.72218,3.49942 4.79553,4.15955 L 5.55558,11"
			   stroke="#323232"
			   stroke-width="2"
			   stroke-linecap="round"
			   stroke-linejoin="round"
			   id="path844"
			   style="fill:none;fill-opacity:1;stroke:#f9f9f9;stroke-opacity:1" />
			<path
			   d="M 9,19.5 C 9,20.3284 8.32843,21 7.5,21 6.67157,21 6,20.3284 6,19.5 6,18.6716 6.67157,18 7.5,18 8.32843,18 9,18.6716 9,19.5 Z"
			   stroke="#323232"
			   stroke-width="2"
			   id="path846"
			   style="fill:none;fill-opacity:1;stroke:#f9f9f9;stroke-opacity:1" />
			<path
			   d="M 18,19.5 C 18,20.3284 17.3284,21 16.5,21 15.6716,21 15,20.3284 15,19.5 15,18.6716 15.6716,18 16.5,18 c 0.8284,0 1.5,0.6716 1.5,1.5 z"
			   stroke="#323232"
			   stroke-width="2"
			   id="path848"
			   style="fill:none;fill-opacity:1;stroke:#f9f9f9;stroke-opacity:1" />
		</g>
		<text
		   xml:space="preserve"
		   transform="scale(0.26458333)"
		   id="text4581"
		   style="fill:#000000;fill-opacity:1;line-height:1.25;stroke:none;font-family:sans-serif;font-style:normal;font-weight:normal;font-size:13.3333px;white-space:pre;shape-inside:url(#rect4583);-inkscape-font-specification:'sans-serif, Normal';font-stretch:normal;font-variant:normal;font-variant-ligatures:normal;font-variant-caps:normal;font-variant-numeric:normal;font-variant-east-asian:normal" />
		<text
		   xml:space="preserve"
		   transform="matrix(0.26458333,0,0,0.26458333,1.2783878,0.18477151)"
		   id="text9059"
		   style="font-style:normal;font-variant:normal;font-weight:normal;font-stretch:normal;font-size:33.3333px;line-height:1.25;font-family:'Cooper Black';-inkscape-font-specification:'Cooper Black, Normal';font-variant-ligatures:normal;font-variant-caps:normal;font-variant-numeric:normal;font-variant-east-asian:normal;white-space:pre;shape-inside:url(#rect9061);fill:#f9f9f9;fill-opacity:1;stroke:none"
		   x="37.903549"
		   y="0"><tspan
		x="25.409274"
		y="32.793893"
		id="tspan855"><tspan
	style="text-align:center;text-anchor:middle"
	id="tspan853">Twoja lista 
</tspan></tspan><tspan
	 x="45.957757"
	 y="74.460519"
	 id="tspan859"><tspan
	style="text-align:center;text-anchor:middle"
	id="tspan857">zakupów</tspan></tspan></text>
	</g>
</svg>
