<?xml version="1.0" encoding="UTF-8" standalone="no"?>
<!-- Uploaded to: SVG Repo, www.svgrepo.com, Generator: SVG Repo Mixer Tools -->

<svg
   width="600"
   height="600"
   viewBox="0 0 18 18"
   fill="none"
   version="1.1"
   id="svg12"
   xmlns="http://www.w3.org/2000/svg"
   xmlns:svg="http://www.w3.org/2000/svg">
	<defs
	   id="defs16" />
	<g
	   id="g1061"
	   transform="matrix(0.49618398,0,0,0.49618398,3.4328506,2.6598759)">
		<path
		   opacity="0.1"
		   d="m 5.3242824,12.262891 c 0.1734241,1.560955 0.2601407,2.34134 0.7853653,2.81149 0.5252245,0.470057 1.3104698,0.470057 2.8809605,0.470057 h 0.1159327 3.4719121 1.250903 c 1.081952,0 1.622836,0 2.061815,-0.264309 0.438978,-0.264309 0.692128,-0.74239 1.198336,-1.698551 L 19.365738,9.2820541 C 19.855162,8.357553 19.184983,7.2444297 18.138905,7.2444297 H 9.1065409 8.88814 c -1.9234808,0 -2.8852212,0 -3.4350875,0.6143482 C 4.9031861,8.4731168 5.0093986,9.4289734 5.2218142,11.340668 Z"
		   fill="#323232"
		   id="path2"
		   style="stroke:#f9f9f9;stroke-width:0.922223;stroke-opacity:1" />
		<path
		   d="m 5.3242824,12.262891 c 0.1734241,1.560955 0.2601407,2.34134 0.7853653,2.81149 0.5252245,0.470057 1.3104698,0.470057 2.8809605,0.470057 h 0.1159327 3.4719121 1.250903 c 1.081952,0 1.622836,0 2.061815,-0.264309 0.438978,-0.264309 0.692128,-0.74239 1.198336,-1.698551 L 19.365738,9.2820541 C 19.855162,8.357553 19.184983,7.2444297 18.138905,7.2444297 v 0 H 9.1065409 8.88814 c -1.9234808,0 -2.8852212,0 -3.4350875,0.6143482 C 4.9031861,8.4731168 5.0093986,9.4289734 5.2218142,11.340668 Z"
		   stroke="#323232"
		   stroke-width="1.84445"
		   stroke-linejoin="round"
		   id="path4"
		   style="stroke:#f9f9f9;stroke-opacity:1" />
		<path
		   d="m 2.9222231,4.4777602 h 0.4611116 v 0 c 0.6125406,0 1.1271227,0.4605767 1.1947678,1.0693639 l 0.7009357,6.3084209"
		   stroke="#323232"
		   stroke-width="1.84445"
		   stroke-linecap="round"
		   stroke-linejoin="round"
		   id="path6"
		   style="stroke:#f9f9f9;stroke-opacity:1" />
		<path
		   d="m 8.455562,19.694442 c 0,0.76397 -0.6193374,1.383335 -1.3833347,1.383335 -0.7639973,0 -1.3833347,-0.619365 -1.3833347,-1.383335 0,-0.76397 0.6193374,-1.383335 1.3833347,-1.383335 0.7639973,0 1.3833347,0.619365 1.3833347,1.383335 z"
		   stroke="#323232"
		   stroke-width="1.84445"
		   id="path8"
		   style="stroke:#f9f9f9;stroke-opacity:1" />
		<path
		   d="m 16.75557,19.694442 c 0,0.76397 -0.619365,1.383335 -1.383334,1.383335 -0.76397,0 -1.383335,-0.619365 -1.383335,-1.383335 0,-0.76397 0.619365,-1.383335 1.383335,-1.383335 0.763969,0 1.383334,0.619365 1.383334,1.383335 z"
		   stroke="#323232"
		   stroke-width="1.84445"
		   id="path10"
		   style="stroke:#f9f9f9;stroke-opacity:1" />
	</g>
	<rect
	   style="fill:none;stroke-width:0.12;stroke:#000000;stroke-opacity:0"
	   id="rect848"
	   width="17.869417"
	   height="17.896908"
	   x="0.065291405"
	   y="0.051546097" />
</svg>
